<svg width="1001" height="496" viewBox="0 0 1001 496" fill="none" xmlns="http://www.w3.org/2000/svg">
<g opacity="0.29827">
<path d="M1008.08 163.448L443.182 -356.858V-747.19L28.1096 -770C24.9043 -762.456 4.36709 -740.714 7.57176 -728.596C11.43 -714.102 30.8387 -718.735 36.4776 -709.409C43.0661 -698.42 31.7291 -653.749 28.3457 -640.86C21.8759 -616.445 7.09676 -596.665 2.82235 -572.25C-4.35982 -531.263 10.1824 -534.53 37.7242 -508.927C84.141 -465.742 46.9244 -420.952 58.6176 -370.223C68.1146 -328.878 109.605 -307.554 124.8 -266.211C136.553 -234.37 152.697 -226.233 177.746 -202.947C177.153 -217.084 164.51 -258.785 188.253 -255.102C211.817 -251.478 202.736 -216.669 207.247 -202.115C211.045 -189.997 237.933 -165.761 215.616 -154.593C208.196 -150.91 187.066 -165.582 178.577 -169.503C184.572 -150.791 180.774 -131.367 190.271 -113.487C201.608 -92.162 213.835 -100.359 228.853 -88.7754C244.344 -76.8355 242.683 -63.1137 235.797 -45.0554C228.615 -26.2247 221.196 -29.1352 232.592 -6.44342C240.843 9.95119 254.85 30.7421 266.9 43.2164C273.904 50.4634 281.502 52.1267 288.506 61.3932C294.323 69.1155 292.067 79.2142 299.012 86.1638C310.883 98.1037 331.006 98.282 340.384 113.904C350.831 131.309 338.96 144.437 369.706 142.833C371.309 177.643 377.897 209.185 377.541 243.994C394.695 250.825 422.414 242.687 440.399 239.063C458.266 263.18 481.355 246.429 501.774 259.558C510.678 265.26 508.837 279.517 514.239 284.506C525.339 294.723 533.529 288.308 547.301 291.872C557.51 294.486 565.404 301.97 575.138 304.703C584.338 307.257 599.475 301.258 606.301 309.396C614.492 319.138 600.78 336.958 613.127 344.799C623.395 351.333 638.115 335.77 648.088 338.027C659.721 340.7 693.079 371.174 701.271 381.212C710.59 392.677 719.969 414.062 725.25 428.793C733.501 451.841 732.373 463.127 749.408 479.998C760.27 490.75 749.942 491.522 767.63 494.67C779.204 496.749 794.518 488.374 806.212 487.067C830.549 484.394 855.122 489.027 879.102 484.453C901.421 480.176 922.729 473.166 945.64 469.899C965.465 467.048 1000.37 469.246 1017.94 459.801C1036.99 449.643 1038.71 426.654 1011.17 430.932C1008.97 416.26 1018.77 396.003 1007.85 385.847C1023.04 365.056 1028.56 350.384 1030.93 324.959C1032 313.792 1032.48 301.436 1038 292.05C1043.4 282.783 1058.59 277.259 1061.56 269.299C1066.13 256.943 1058.83 251.419 1053.25 244.528C1049.69 240.073 1039.54 242.212 1036.63 238.291C1031.23 231.103 1036.57 223.678 1033.6 216.431C1024.94 195.462 1014.61 187.205 1008.08 163.444C1008.26 167.424 1008.44 171.463 1008.2 175.384" stroke="white" stroke-width="2" stroke-linecap="round" stroke-linejoin="round"/>
</g>
<path d="M728.501 85.5C716.975 123.375 738.797 115.166 760.402 139.921C766.804 147.257 767.415 159.376 760.676 166.706C746.186 182.47 799.016 169.219 802.501 190C806.1 211.462 809.906 210.946 812 213C835.499 233.5 855 213 852.5 228.5C845.295 246.347 841.357 235.452 826.5 230.5C799.501 221.5 722.5 217.5 752 241C766 249 773 232.5 799.501 238.5C805 238.5 826.192 252.678 829 259.5C830 270.5 808.712 245.283 797.5 275C794.06 284.118 816.997 267.356 831.001 279.5C895.001 335 724.591 462.804 723.327 470.5" stroke="white" stroke-width="2"/>
<path d="M729 470C728 461.5 722.5 473.5 731.5 470" stroke="black"/>
<path fill-rule="evenodd" clip-rule="evenodd" d="M725.5 475C729.09 475 732 472.09 732 468.5C732 464.91 729.09 462 725.5 462C721.91 462 719 464.91 719 468.5C719 472.09 721.91 475 725.5 475Z" fill="#4AF6CD"/>
<path fill-rule="evenodd" clip-rule="evenodd" d="M661 363C662.657 363 664 361.657 664 360C664 358.343 662.657 357 661 357C659.343 357 658 358.343 658 360C658 361.657 659.343 363 661 363Z" fill="#4AF6CD"/>
<path fill-rule="evenodd" clip-rule="evenodd" d="M574 322C575.657 322 577 320.657 577 319C577 317.343 575.657 316 574 316C572.343 316 571 317.343 571 319C571 320.657 572.343 322 574 322Z" fill="#4AF6CD"/>
<path fill-rule="evenodd" clip-rule="evenodd" d="M725 471C726.657 471 728 469.657 728 468C728 466.343 726.657 465 725 465C723.343 465 722 466.343 722 468C722 469.657 723.343 471 725 471Z" fill="#4AF6CD"/>
<path fill-rule="evenodd" clip-rule="evenodd" d="M365 228C366.657 228 368 226.657 368 225C368 223.343 366.657 222 365 222C363.343 222 362 223.343 362 225C362 226.657 363.343 228 365 228Z" fill="#4AF6CD"/>
<path fill-rule="evenodd" clip-rule="evenodd" d="M729.5 91C733.09 91 736 88.0899 736 84.5C736 80.9101 733.09 78 729.5 78C725.91 78 723 80.9101 723 84.5C723 88.0899 725.91 91 729.5 91Z" fill="#4AF6CD"/>
<path d="M528.414 462.784C529.15 462.784 529.779 462.891 530.302 463.104C530.824 463.307 531.331 463.627 531.822 464.064L530.99 464.992C530.574 464.661 530.163 464.421 529.758 464.272C529.363 464.112 528.936 464.032 528.478 464.032C527.902 464.032 527.427 464.165 527.054 464.432C526.68 464.699 526.494 465.088 526.494 465.6C526.494 465.92 526.558 466.192 526.686 466.416C526.814 466.629 527.048 466.827 527.39 467.008C527.742 467.189 528.248 467.381 528.91 467.584C529.603 467.797 530.179 468.027 530.638 468.272C531.096 468.517 531.464 468.859 531.742 469.296C532.03 469.723 532.174 470.267 532.174 470.928C532.174 471.568 532.014 472.133 531.694 472.624C531.384 473.115 530.931 473.499 530.334 473.776C529.747 474.053 529.048 474.192 528.238 474.192C526.712 474.192 525.464 473.717 524.494 472.768L525.326 471.84C525.774 472.203 526.227 472.48 526.686 472.672C527.144 472.853 527.656 472.944 528.222 472.944C528.904 472.944 529.47 472.779 529.918 472.448C530.366 472.107 530.59 471.616 530.59 470.976C530.59 470.613 530.52 470.315 530.382 470.08C530.243 469.835 530.003 469.616 529.662 469.424C529.331 469.232 528.846 469.04 528.206 468.848C527.075 468.507 526.248 468.096 525.726 467.616C525.203 467.136 524.942 466.485 524.942 465.664C524.942 465.109 525.086 464.613 525.374 464.176C525.672 463.739 526.083 463.397 526.606 463.152C527.139 462.907 527.742 462.784 528.414 462.784ZM537.501 465.376C538.685 465.376 539.602 465.771 540.253 466.56C540.914 467.349 541.245 468.421 541.245 469.776C541.245 470.651 541.095 471.424 540.797 472.096C540.498 472.757 540.066 473.275 539.501 473.648C538.935 474.011 538.263 474.192 537.485 474.192C536.301 474.192 535.378 473.797 534.717 473.008C534.055 472.219 533.725 471.147 533.725 469.792C533.725 468.917 533.874 468.149 534.173 467.488C534.471 466.816 534.903 466.299 535.469 465.936C536.034 465.563 536.711 465.376 537.501 465.376ZM537.501 466.56C536.039 466.56 535.309 467.637 535.309 469.792C535.309 471.936 536.034 473.008 537.485 473.008C538.935 473.008 539.661 471.931 539.661 469.776C539.661 467.632 538.941 466.56 537.501 466.56ZM549.948 474H548.684L548.572 472.688C548.252 473.211 547.884 473.595 547.468 473.84C547.052 474.075 546.546 474.192 545.948 474.192C545.212 474.192 544.636 473.968 544.22 473.52C543.804 473.072 543.596 472.437 543.596 471.616V465.568H545.068V471.456C545.068 472.032 545.17 472.443 545.372 472.688C545.575 472.923 545.906 473.04 546.364 473.04C547.186 473.04 547.89 472.555 548.476 471.584V465.568H549.948V474ZM557.245 473.616C556.69 474 556.061 474.192 555.357 474.192C554.642 474.192 554.082 473.989 553.677 473.584C553.282 473.168 553.085 472.571 553.085 471.792V466.704H551.613V465.568H553.085V463.664L554.557 463.488V465.568H556.557L556.397 466.704H554.557V471.728C554.557 472.165 554.631 472.485 554.781 472.688C554.941 472.88 555.202 472.976 555.565 472.976C555.895 472.976 556.269 472.864 556.685 472.64L557.245 473.616ZM562.738 465.376C563.506 465.376 564.103 465.605 564.53 466.064C564.967 466.523 565.186 467.152 565.186 467.952V474H563.714V468.16C563.714 467.563 563.597 467.141 563.362 466.896C563.138 466.651 562.807 466.528 562.37 466.528C561.933 466.528 561.543 466.656 561.202 466.912C560.861 467.168 560.541 467.531 560.242 468V474H558.77V462.192L560.242 462.032V466.736C560.903 465.829 561.735 465.376 562.738 465.376ZM575.179 462.784C575.915 462.784 576.545 462.891 577.067 463.104C577.59 463.307 578.097 463.627 578.587 464.064L577.755 464.992C577.339 464.661 576.929 464.421 576.523 464.272C576.129 464.112 575.702 464.032 575.243 464.032C574.667 464.032 574.193 464.165 573.819 464.432C573.446 464.699 573.259 465.088 573.259 465.6C573.259 465.92 573.323 466.192 573.451 466.416C573.579 466.629 573.814 466.827 574.155 467.008C574.507 467.189 575.014 467.381 575.675 467.584C576.369 467.797 576.945 468.027 577.403 468.272C577.862 468.517 578.23 468.859 578.507 469.296C578.795 469.723 578.939 470.267 578.939 470.928C578.939 471.568 578.779 472.133 578.459 472.624C578.15 473.115 577.697 473.499 577.099 473.776C576.513 474.053 575.814 474.192 575.003 474.192C573.478 474.192 572.23 473.717 571.259 472.768L572.091 471.84C572.539 472.203 572.993 472.48 573.451 472.672C573.91 472.853 574.422 472.944 574.987 472.944C575.67 472.944 576.235 472.779 576.683 472.448C577.131 472.107 577.355 471.616 577.355 470.976C577.355 470.613 577.286 470.315 577.147 470.08C577.009 469.835 576.769 469.616 576.427 469.424C576.097 469.232 575.611 469.04 574.971 468.848C573.841 468.507 573.014 468.096 572.491 467.616C571.969 467.136 571.707 466.485 571.707 465.664C571.707 465.109 571.851 464.613 572.139 464.176C572.438 463.739 572.849 463.397 573.371 463.152C573.905 462.907 574.507 462.784 575.179 462.784ZM585.066 465.376C585.834 465.376 586.431 465.605 586.858 466.064C587.295 466.523 587.514 467.152 587.514 467.952V474H586.042V468.16C586.042 467.563 585.925 467.141 585.69 466.896C585.466 466.651 585.135 466.528 584.698 466.528C584.261 466.528 583.871 466.656 583.53 466.912C583.189 467.168 582.869 467.531 582.57 468V474H581.098V462.192L582.57 462.032V466.736C583.231 465.829 584.063 465.376 585.066 465.376ZM593.641 465.376C594.825 465.376 595.742 465.771 596.393 466.56C597.054 467.349 597.385 468.421 597.385 469.776C597.385 470.651 597.236 471.424 596.937 472.096C596.638 472.757 596.206 473.275 595.641 473.648C595.076 474.011 594.404 474.192 593.625 474.192C592.441 474.192 591.518 473.797 590.857 473.008C590.196 472.219 589.865 471.147 589.865 469.792C589.865 468.917 590.014 468.149 590.313 467.488C590.612 466.816 591.044 466.299 591.609 465.936C592.174 465.563 592.852 465.376 593.641 465.376ZM593.641 466.56C592.18 466.56 591.449 467.637 591.449 469.792C591.449 471.936 592.174 473.008 593.625 473.008C595.076 473.008 595.801 471.931 595.801 469.776C595.801 467.632 595.081 466.56 593.641 466.56ZM603.481 465.376C603.78 465.376 604.057 465.408 604.313 465.472L604.041 466.912C603.785 466.848 603.54 466.816 603.305 466.816C602.782 466.816 602.361 467.008 602.041 467.392C601.721 467.776 601.47 468.373 601.289 469.184V474H599.817V465.568H601.081L601.225 467.28C601.449 466.651 601.753 466.176 602.137 465.856C602.521 465.536 602.969 465.376 603.481 465.376ZM611.872 469.536C611.872 469.781 611.862 470.032 611.84 470.288H606.464C606.528 471.216 606.763 471.899 607.168 472.336C607.574 472.773 608.096 472.992 608.736 472.992C609.142 472.992 609.515 472.933 609.856 472.816C610.198 472.699 610.555 472.512 610.928 472.256L611.568 473.136C610.672 473.84 609.691 474.192 608.624 474.192C607.451 474.192 606.534 473.808 605.872 473.04C605.222 472.272 604.896 471.216 604.896 469.872C604.896 468.997 605.035 468.224 605.312 467.552C605.6 466.869 606.006 466.336 606.528 465.952C607.062 465.568 607.686 465.376 608.4 465.376C609.52 465.376 610.379 465.744 610.976 466.48C611.574 467.216 611.872 468.235 611.872 469.536ZM610.416 469.104C610.416 468.272 610.251 467.637 609.92 467.2C609.59 466.763 609.094 466.544 608.432 466.544C607.227 466.544 606.571 467.429 606.464 469.2H610.416V469.104ZM620.41 461.184V475.568H620.058V461.184H620.41ZM639.237 474H637.765L637.381 469.024C637.221 467.072 637.131 465.573 637.109 464.528L634.725 472.752H633.301L630.789 464.512C630.789 465.845 630.72 467.387 630.581 469.136L630.213 474H628.773L629.685 462.976H631.733L634.053 470.992L636.261 462.976H638.325L639.237 474ZM647.434 472.032C647.434 472.373 647.493 472.629 647.61 472.8C647.728 472.96 647.904 473.083 648.138 473.168L647.802 474.192C647.365 474.139 647.013 474.016 646.746 473.824C646.48 473.632 646.282 473.333 646.154 472.928C645.589 473.771 644.752 474.192 643.642 474.192C642.81 474.192 642.154 473.957 641.674 473.488C641.194 473.019 640.954 472.405 640.954 471.648C640.954 470.752 641.274 470.064 641.914 469.584C642.565 469.104 643.482 468.864 644.666 468.864H645.962V468.24C645.962 467.643 645.818 467.216 645.53 466.96C645.242 466.704 644.8 466.576 644.202 466.576C643.584 466.576 642.826 466.725 641.93 467.024L641.562 465.952C642.608 465.568 643.578 465.376 644.474 465.376C645.466 465.376 646.208 465.621 646.698 466.112C647.189 466.592 647.434 467.28 647.434 468.176V472.032ZM643.978 473.088C644.821 473.088 645.482 472.651 645.962 471.776V469.84H644.858C643.301 469.84 642.522 470.416 642.522 471.568C642.522 472.069 642.645 472.448 642.89 472.704C643.136 472.96 643.498 473.088 643.978 473.088ZM651.981 474.192C651.437 474.192 651.005 474.032 650.685 473.712C650.376 473.381 650.221 472.923 650.221 472.336V462.176L651.693 462V472.304C651.693 472.539 651.731 472.709 651.805 472.816C651.891 472.923 652.029 472.976 652.221 472.976C652.424 472.976 652.605 472.944 652.765 472.88L653.149 473.904C652.797 474.096 652.408 474.192 651.981 474.192ZM656.461 465.568V474H654.989V465.568H656.461ZM655.709 461.52C656.018 461.52 656.269 461.616 656.461 461.808C656.653 462 656.749 462.24 656.749 462.528C656.749 462.816 656.653 463.056 656.461 463.248C656.269 463.429 656.018 463.52 655.709 463.52C655.41 463.52 655.165 463.429 654.973 463.248C654.781 463.056 654.685 462.816 654.685 462.528C654.685 462.24 654.781 462 654.973 461.808C655.165 461.616 655.41 461.52 655.709 461.52ZM663.36 465.376C664.32 465.376 665.083 465.765 665.648 466.544C666.214 467.312 666.496 468.389 666.496 469.776C666.496 470.651 666.363 471.424 666.096 472.096C665.83 472.757 665.446 473.275 664.944 473.648C664.443 474.011 663.856 474.192 663.184 474.192C662.299 474.192 661.552 473.819 660.944 473.072L660.8 474H659.504V462.176L660.976 462V466.624C661.584 465.792 662.379 465.376 663.36 465.376ZM662.832 473.024C663.483 473.024 663.99 472.763 664.352 472.24C664.726 471.707 664.912 470.885 664.912 469.776C664.912 468.635 664.742 467.813 664.4 467.312C664.059 466.8 663.574 466.544 662.944 466.544C662.198 466.544 661.542 466.981 660.976 467.856V471.888C661.2 472.24 661.472 472.517 661.792 472.72C662.123 472.923 662.47 473.024 662.832 473.024ZM675.276 474H674.012L673.9 472.688C673.58 473.211 673.212 473.595 672.796 473.84C672.38 474.075 671.874 474.192 671.276 474.192C670.54 474.192 669.964 473.968 669.548 473.52C669.132 473.072 668.924 472.437 668.924 471.616V465.568H670.396V471.456C670.396 472.032 670.498 472.443 670.7 472.688C670.903 472.923 671.234 473.04 671.692 473.04C672.514 473.04 673.218 472.555 673.804 471.584V465.568H675.276V474ZM678.701 471.968C679.021 471.968 679.288 472.075 679.501 472.288C679.714 472.501 679.821 472.763 679.821 473.072C679.821 473.403 679.725 473.781 679.533 474.208L678.461 476.656H677.405L678.045 474C677.906 473.893 677.794 473.76 677.709 473.6C677.634 473.44 677.597 473.264 677.597 473.072C677.597 472.763 677.704 472.501 677.917 472.288C678.13 472.075 678.392 471.968 678.701 471.968ZM690.331 462.784C690.992 462.784 691.547 462.869 691.995 463.04C692.454 463.211 692.918 463.488 693.387 463.872L692.555 464.848C691.883 464.304 691.174 464.032 690.427 464.032C689.51 464.032 688.768 464.384 688.203 465.088C687.648 465.792 687.371 466.923 687.371 468.48C687.371 469.995 687.648 471.115 688.203 471.84C688.758 472.555 689.494 472.912 690.411 472.912C690.88 472.912 691.291 472.832 691.643 472.672C691.995 472.512 692.368 472.288 692.763 472L693.515 472.96C693.174 473.312 692.736 473.605 692.203 473.84C691.67 474.075 691.056 474.192 690.363 474.192C689.467 474.192 688.667 473.973 687.963 473.536C687.27 473.088 686.726 472.437 686.331 471.584C685.947 470.72 685.755 469.685 685.755 468.48C685.755 467.275 685.958 466.245 686.363 465.392C686.768 464.528 687.318 463.877 688.011 463.44C688.704 463.003 689.478 462.784 690.331 462.784ZM701.3 474L700.468 471.232H696.292L695.46 474H693.924L697.46 462.976H699.38L702.9 474H701.3ZM696.66 470H700.1L698.388 464.24L696.66 470Z" fill="white"/>
<path d="M598.378 75.784C599.039 75.784 599.594 75.8693 600.042 76.04C600.501 76.2107 600.965 76.488 601.434 76.872L600.602 77.848C599.93 77.304 599.221 77.032 598.474 77.032C597.557 77.032 596.815 77.384 596.25 78.088C595.695 78.792 595.418 79.9227 595.418 81.48C595.418 82.9947 595.695 84.1147 596.25 84.84C596.805 85.5547 597.541 85.912 598.458 85.912C598.927 85.912 599.338 85.832 599.69 85.672C600.042 85.512 600.415 85.288 600.81 85L601.562 85.96C601.221 86.312 600.783 86.6053 600.25 86.84C599.717 87.0747 599.103 87.192 598.41 87.192C597.514 87.192 596.714 86.9733 596.01 86.536C595.317 86.088 594.773 85.4373 594.378 84.584C593.994 83.72 593.802 82.6853 593.802 81.48C593.802 80.2747 594.005 79.2453 594.41 78.392C594.815 77.528 595.365 76.8773 596.058 76.44C596.751 76.0027 597.525 75.784 598.378 75.784ZM609.401 87H608.137L608.025 85.688C607.705 86.2107 607.337 86.5947 606.921 86.84C606.505 87.0747 605.999 87.192 605.401 87.192C604.665 87.192 604.089 86.968 603.673 86.52C603.257 86.072 603.049 85.4373 603.049 84.616V78.568H604.521V84.456C604.521 85.032 604.623 85.4427 604.825 85.688C605.028 85.9227 605.359 86.04 605.817 86.04C606.639 86.04 607.343 85.5547 607.929 84.584V78.568H609.401V87ZM616.106 78.376C616.405 78.376 616.682 78.408 616.938 78.472L616.666 79.912C616.41 79.848 616.165 79.816 615.93 79.816C615.407 79.816 614.986 80.008 614.666 80.392C614.346 80.776 614.095 81.3733 613.914 82.184V87H612.442V78.568H613.706L613.85 80.28C614.074 79.6507 614.378 79.176 614.762 78.856C615.146 78.536 615.594 78.376 616.106 78.376ZM622.278 78.376C622.576 78.376 622.854 78.408 623.11 78.472L622.838 79.912C622.582 79.848 622.336 79.816 622.102 79.816C621.579 79.816 621.158 80.008 620.838 80.392C620.518 80.776 620.267 81.3733 620.086 82.184V87H618.614V78.568H619.878L620.022 80.28C620.246 79.6507 620.55 79.176 620.934 78.856C621.318 78.536 621.766 78.376 622.278 78.376ZM630.669 82.536C630.669 82.7813 630.659 83.032 630.637 83.288H625.261C625.325 84.216 625.56 84.8987 625.965 85.336C626.371 85.7733 626.893 85.992 627.533 85.992C627.939 85.992 628.312 85.9333 628.653 85.816C628.995 85.6987 629.352 85.512 629.725 85.256L630.365 86.136C629.469 86.84 628.488 87.192 627.421 87.192C626.248 87.192 625.331 86.808 624.669 86.04C624.019 85.272 623.693 84.216 623.693 82.872C623.693 81.9973 623.832 81.224 624.109 80.552C624.397 79.8693 624.803 79.336 625.325 78.952C625.859 78.568 626.483 78.376 627.197 78.376C628.317 78.376 629.176 78.744 629.773 79.48C630.371 80.216 630.669 81.2347 630.669 82.536ZM629.213 82.104C629.213 81.272 629.048 80.6373 628.717 80.2C628.387 79.7627 627.891 79.544 627.229 79.544C626.024 79.544 625.368 80.4293 625.261 82.2H629.213V82.104ZM636.988 78.376C637.756 78.376 638.353 78.6053 638.78 79.064C639.217 79.5227 639.436 80.152 639.436 80.952V87H637.964V81.16C637.964 80.5627 637.852 80.1413 637.628 79.896C637.404 79.6507 637.073 79.528 636.636 79.528C636.188 79.528 635.793 79.656 635.452 79.912C635.111 80.168 634.791 80.536 634.492 81.016V87H633.02V78.568H634.284L634.412 79.816C634.711 79.368 635.079 79.016 635.516 78.76C635.964 78.504 636.455 78.376 636.988 78.376ZM646.651 86.616C646.096 87 645.467 87.192 644.763 87.192C644.048 87.192 643.488 86.9893 643.083 86.584C642.688 86.168 642.491 85.5707 642.491 84.792V79.704H641.019V78.568H642.491V76.664L643.963 76.488V78.568H645.963L645.803 79.704H643.963V84.728C643.963 85.1653 644.038 85.4853 644.187 85.688C644.347 85.88 644.608 85.976 644.971 85.976C645.302 85.976 645.675 85.864 646.091 85.64L646.651 86.616ZM654.011 75.976V85.672H658.539L658.363 87H652.491V75.976H654.011ZM663.141 78.376C664.325 78.376 665.242 78.7707 665.893 79.56C666.554 80.3493 666.885 81.4213 666.885 82.776C666.885 83.6507 666.736 84.424 666.437 85.096C666.138 85.7573 665.706 86.2747 665.141 86.648C664.576 87.0107 663.904 87.192 663.125 87.192C661.941 87.192 661.018 86.7973 660.357 86.008C659.696 85.2187 659.365 84.1467 659.365 82.792C659.365 81.9173 659.514 81.1493 659.813 80.488C660.112 79.816 660.544 79.2987 661.109 78.936C661.674 78.5627 662.352 78.376 663.141 78.376ZM663.141 79.56C661.68 79.56 660.949 80.6373 660.949 82.792C660.949 84.936 661.674 86.008 663.125 86.008C664.576 86.008 665.301 84.9307 665.301 82.776C665.301 80.632 664.581 79.56 663.141 79.56ZM672.389 78.376C672.89 78.376 673.349 78.4507 673.765 78.6C674.181 78.7387 674.581 78.968 674.965 79.288L674.261 80.216C673.962 80.0027 673.669 79.848 673.381 79.752C673.104 79.6453 672.794 79.592 672.453 79.592C671.77 79.592 671.237 79.864 670.853 80.408C670.48 80.952 670.293 81.7573 670.293 82.824C670.293 83.8907 670.48 84.68 670.853 85.192C671.226 85.6933 671.76 85.944 672.453 85.944C672.784 85.944 673.088 85.896 673.365 85.8C673.642 85.6933 673.952 85.528 674.293 85.304L674.965 86.264C674.197 86.8827 673.338 87.192 672.389 87.192C671.248 87.192 670.346 86.808 669.685 86.04C669.034 85.272 668.709 84.2107 668.709 82.856C668.709 81.96 668.858 81.176 669.157 80.504C669.456 79.832 669.877 79.3093 670.421 78.936C670.976 78.5627 671.632 78.376 672.389 78.376ZM682.481 85.032C682.481 85.3733 682.54 85.6293 682.657 85.8C682.775 85.96 682.951 86.0827 683.185 86.168L682.849 87.192C682.412 87.1387 682.06 87.016 681.793 86.824C681.527 86.632 681.329 86.3333 681.201 85.928C680.636 86.7707 679.799 87.192 678.689 87.192C677.857 87.192 677.201 86.9573 676.721 86.488C676.241 86.0187 676.001 85.4053 676.001 84.648C676.001 83.752 676.321 83.064 676.961 82.584C677.612 82.104 678.529 81.864 679.713 81.864H681.009V81.24C681.009 80.6427 680.865 80.216 680.577 79.96C680.289 79.704 679.847 79.576 679.249 79.576C678.631 79.576 677.873 79.7253 676.977 80.024L676.609 78.952C677.655 78.568 678.625 78.376 679.521 78.376C680.513 78.376 681.255 78.6213 681.745 79.112C682.236 79.592 682.481 80.28 682.481 81.176V85.032ZM679.025 86.088C679.868 86.088 680.529 85.6507 681.009 84.776V82.84H679.905C678.348 82.84 677.569 83.416 677.569 84.568C677.569 85.0693 677.692 85.448 677.937 85.704C678.183 85.96 678.545 86.088 679.025 86.088ZM689.76 86.616C689.206 87 688.576 87.192 687.872 87.192C687.158 87.192 686.598 86.9893 686.192 86.584C685.798 86.168 685.6 85.5707 685.6 84.792V79.704H684.128V78.568H685.6V76.664L687.072 76.488V78.568H689.072L688.912 79.704H687.072V84.728C687.072 85.1653 687.147 85.4853 687.296 85.688C687.456 85.88 687.718 85.976 688.08 85.976C688.411 85.976 688.784 85.864 689.2 85.64L689.76 86.616ZM692.758 78.568V87H691.286V78.568H692.758ZM692.006 74.52C692.315 74.52 692.566 74.616 692.758 74.808C692.95 75 693.046 75.24 693.046 75.528C693.046 75.816 692.95 76.056 692.758 76.248C692.566 76.4293 692.315 76.52 692.006 76.52C691.707 76.52 691.462 76.4293 691.27 76.248C691.078 76.056 690.982 75.816 690.982 75.528C690.982 75.24 691.078 75 691.27 74.808C691.462 74.616 691.707 74.52 692.006 74.52ZM698.969 78.376C700.153 78.376 701.071 78.7707 701.721 79.56C702.383 80.3493 702.713 81.4213 702.713 82.776C702.713 83.6507 702.564 84.424 702.265 85.096C701.967 85.7573 701.535 86.2747 700.969 86.648C700.404 87.0107 699.732 87.192 698.953 87.192C697.769 87.192 696.847 86.7973 696.185 86.008C695.524 85.2187 695.193 84.1467 695.193 82.792C695.193 81.9173 695.343 81.1493 695.641 80.488C695.94 79.816 696.372 79.2987 696.937 78.936C697.503 78.5627 698.18 78.376 698.969 78.376ZM698.969 79.56C697.508 79.56 696.777 80.6373 696.777 82.792C696.777 84.936 697.503 86.008 698.953 86.008C700.404 86.008 701.129 84.9307 701.129 82.776C701.129 80.632 700.409 79.56 698.969 79.56ZM709.113 78.376C709.881 78.376 710.478 78.6053 710.905 79.064C711.342 79.5227 711.561 80.152 711.561 80.952V87H710.089V81.16C710.089 80.5627 709.977 80.1413 709.753 79.896C709.529 79.6507 709.198 79.528 708.761 79.528C708.313 79.528 707.918 79.656 707.577 79.912C707.236 80.168 706.916 80.536 706.617 81.016V87H705.145V78.568H706.409L706.537 79.816C706.836 79.368 707.204 79.016 707.641 78.76C708.089 78.504 708.58 78.376 709.113 78.376Z" fill="white"/>
</svg>
