<svg width="1001" height="496" viewBox="0 0 1001 496" fill="none" xmlns="http://www.w3.org/2000/svg">
<g opacity="0.29827">
<path d="M1008.08 163.448L443.182 -356.858V-747.19L28.1096 -770C24.9043 -762.456 4.36709 -740.714 7.57176 -728.596C11.43 -714.102 30.8387 -718.735 36.4776 -709.409C43.0661 -698.42 31.7291 -653.749 28.3457 -640.86C21.8759 -616.445 7.09676 -596.665 2.82235 -572.25C-4.35982 -531.263 10.1824 -534.53 37.7242 -508.927C84.141 -465.742 46.9244 -420.952 58.6176 -370.223C68.1146 -328.878 109.605 -307.554 124.8 -266.211C136.553 -234.37 152.697 -226.233 177.746 -202.947C177.153 -217.084 164.51 -258.785 188.253 -255.102C211.817 -251.478 202.736 -216.669 207.247 -202.115C211.045 -189.997 237.933 -165.761 215.616 -154.593C208.196 -150.91 187.066 -165.582 178.577 -169.503C184.572 -150.791 180.774 -131.367 190.271 -113.487C201.608 -92.162 213.835 -100.359 228.853 -88.7754C244.344 -76.8355 242.683 -63.1137 235.797 -45.0554C228.615 -26.2247 221.196 -29.1352 232.592 -6.44342C240.843 9.95119 254.85 30.7421 266.9 43.2164C273.904 50.4634 281.502 52.1267 288.506 61.3932C294.323 69.1155 292.067 79.2142 299.012 86.1638C310.883 98.1037 331.006 98.282 340.384 113.904C350.831 131.309 338.96 144.437 369.706 142.833C371.309 177.643 377.897 209.185 377.541 243.994C394.695 250.825 422.414 242.687 440.399 239.063C458.266 263.18 481.355 246.429 501.774 259.558C510.678 265.26 508.837 279.517 514.239 284.506C525.339 294.723 533.529 288.308 547.301 291.872C557.51 294.486 565.404 301.97 575.138 304.703C584.338 307.257 599.475 301.258 606.301 309.396C614.492 319.138 600.78 336.958 613.127 344.799C623.395 351.333 638.115 335.77 648.088 338.027C659.721 340.7 693.079 371.174 701.271 381.212C710.59 392.677 719.969 414.062 725.25 428.793C733.501 451.841 732.373 463.127 749.408 479.998C760.27 490.75 749.942 491.522 767.63 494.67C779.204 496.749 794.518 488.374 806.212 487.067C830.549 484.394 855.122 489.027 879.102 484.453C901.421 480.176 922.729 473.166 945.64 469.899C965.465 467.048 1000.37 469.246 1017.94 459.801C1036.99 449.643 1038.71 426.654 1011.17 430.932C1008.97 416.26 1018.77 396.003 1007.85 385.847C1023.04 365.056 1028.56 350.384 1030.93 324.959C1032 313.792 1032.48 301.436 1038 292.05C1043.4 282.783 1058.59 277.259 1061.56 269.299C1066.13 256.943 1058.83 251.419 1053.25 244.528C1049.69 240.073 1039.54 242.212 1036.63 238.291C1031.23 231.103 1036.57 223.678 1033.6 216.431C1024.94 195.462 1014.61 187.205 1008.08 163.444C1008.26 167.424 1008.44 171.463 1008.2 175.384" stroke="white" stroke-width="2" stroke-linecap="round" stroke-linejoin="round"/>
</g>
<path d="M729 470C728 461.5 722.5 473.5 731.5 470" stroke="black"/>
<path fill-rule="evenodd" clip-rule="evenodd" d="M661 363C662.657 363 664 361.657 664 360C664 358.343 662.657 357 661 357C659.343 357 658 358.343 658 360C658 361.657 659.343 363 661 363Z" fill="#4AF6CD"/>
<path fill-rule="evenodd" clip-rule="evenodd" d="M574 322C575.657 322 577 320.657 577 319C577 317.343 575.657 316 574 316C572.343 316 571 317.343 571 319C571 320.657 572.343 322 574 322Z" fill="#4AF6CD"/>
<path fill-rule="evenodd" clip-rule="evenodd" d="M725 471C726.657 471 728 469.657 728 468C728 466.343 726.657 465 725 465C723.343 465 722 466.343 722 468C722 469.657 723.343 471 725 471Z" fill="#4AF6CD"/>
<path fill-rule="evenodd" clip-rule="evenodd" d="M365 228C366.657 228 368 226.657 368 225C368 223.343 366.657 222 365 222C363.343 222 362 223.343 362 225C362 226.657 363.343 228 365 228Z" fill="#4AF6CD"/>
<path d="M477.021 353.976L476.845 355.192H472.573V358.792H476.285V360.008H472.573V363.784H477.149V365H471.053V353.976H477.021ZM485.028 363.032C485.028 363.373 485.087 363.629 485.204 363.8C485.321 363.96 485.497 364.083 485.732 364.168L485.396 365.192C484.959 365.139 484.607 365.016 484.34 364.824C484.073 364.632 483.876 364.333 483.748 363.928C483.183 364.771 482.345 365.192 481.236 365.192C480.404 365.192 479.748 364.957 479.268 364.488C478.788 364.019 478.548 363.405 478.548 362.648C478.548 361.752 478.868 361.064 479.508 360.584C480.159 360.104 481.076 359.864 482.26 359.864H483.556V359.24C483.556 358.643 483.412 358.216 483.124 357.96C482.836 357.704 482.393 357.576 481.796 357.576C481.177 357.576 480.42 357.725 479.524 358.024L479.156 356.952C480.201 356.568 481.172 356.376 482.068 356.376C483.06 356.376 483.801 356.621 484.292 357.112C484.783 357.592 485.028 358.28 485.028 359.176V363.032ZM481.572 364.088C482.415 364.088 483.076 363.651 483.556 362.776V360.84H482.452C480.895 360.84 480.116 361.416 480.116 362.568C480.116 363.069 480.239 363.448 480.484 363.704C480.729 363.96 481.092 364.088 481.572 364.088ZM490.183 356.376C490.759 356.376 491.276 356.456 491.735 356.616C492.194 356.776 492.631 357.016 493.047 357.336L492.423 358.264C492.039 358.019 491.671 357.837 491.319 357.72C490.978 357.603 490.615 357.544 490.231 357.544C489.751 357.544 489.372 357.645 489.095 357.848C488.818 358.04 488.679 358.307 488.679 358.648C488.679 358.989 488.807 359.256 489.063 359.448C489.33 359.64 489.804 359.827 490.487 360.008C491.426 360.243 492.124 360.563 492.583 360.968C493.052 361.373 493.287 361.928 493.287 362.632C493.287 363.464 492.962 364.099 492.311 364.536C491.671 364.973 490.887 365.192 489.959 365.192C488.679 365.192 487.618 364.824 486.775 364.088L487.559 363.192C488.274 363.736 489.063 364.008 489.927 364.008C490.482 364.008 490.919 363.896 491.239 363.672C491.57 363.437 491.735 363.123 491.735 362.728C491.735 362.44 491.676 362.211 491.559 362.04C491.442 361.859 491.239 361.704 490.951 361.576C490.663 361.437 490.242 361.293 489.687 361.144C488.791 360.909 488.14 360.595 487.735 360.2C487.34 359.805 487.143 359.304 487.143 358.696C487.143 358.259 487.271 357.864 487.527 357.512C487.794 357.149 488.156 356.872 488.615 356.68C489.084 356.477 489.607 356.376 490.183 356.376ZM499.62 364.616C499.065 365 498.436 365.192 497.732 365.192C497.017 365.192 496.457 364.989 496.052 364.584C495.657 364.168 495.46 363.571 495.46 362.792V357.704H493.988V356.568H495.46V354.664L496.932 354.488V356.568H498.932L498.772 357.704H496.932V362.728C496.932 363.165 497.006 363.485 497.156 363.688C497.316 363.88 497.577 363.976 497.94 363.976C498.27 363.976 498.644 363.864 499.06 363.64L499.62 364.616ZM508.179 353.784C508.915 353.784 509.545 353.891 510.067 354.104C510.59 354.307 511.097 354.627 511.587 355.064L510.755 355.992C510.339 355.661 509.929 355.421 509.523 355.272C509.129 355.112 508.702 355.032 508.243 355.032C507.667 355.032 507.193 355.165 506.819 355.432C506.446 355.699 506.259 356.088 506.259 356.6C506.259 356.92 506.323 357.192 506.451 357.416C506.579 357.629 506.814 357.827 507.155 358.008C507.507 358.189 508.014 358.381 508.675 358.584C509.369 358.797 509.945 359.027 510.403 359.272C510.862 359.517 511.23 359.859 511.507 360.296C511.795 360.723 511.939 361.267 511.939 361.928C511.939 362.568 511.779 363.133 511.459 363.624C511.15 364.115 510.697 364.499 510.099 364.776C509.513 365.053 508.814 365.192 508.003 365.192C506.478 365.192 505.23 364.717 504.259 363.768L505.091 362.84C505.539 363.203 505.993 363.48 506.451 363.672C506.91 363.853 507.422 363.944 507.987 363.944C508.67 363.944 509.235 363.779 509.683 363.448C510.131 363.107 510.355 362.616 510.355 361.976C510.355 361.613 510.286 361.315 510.147 361.08C510.009 360.835 509.769 360.616 509.427 360.424C509.097 360.232 508.611 360.04 507.971 359.848C506.841 359.507 506.014 359.096 505.491 358.616C504.969 358.136 504.707 357.485 504.707 356.664C504.707 356.109 504.851 355.613 505.139 355.176C505.438 354.739 505.849 354.397 506.371 354.152C506.905 353.907 507.507 353.784 508.179 353.784ZM518.066 356.376C518.834 356.376 519.431 356.605 519.858 357.064C520.295 357.523 520.514 358.152 520.514 358.952V365H519.042V359.16C519.042 358.563 518.925 358.141 518.69 357.896C518.466 357.651 518.135 357.528 517.698 357.528C517.261 357.528 516.871 357.656 516.53 357.912C516.189 358.168 515.869 358.531 515.57 359V365H514.098V353.192L515.57 353.032V357.736C516.231 356.829 517.063 356.376 518.066 356.376ZM526.641 356.376C527.825 356.376 528.742 356.771 529.393 357.56C530.054 358.349 530.385 359.421 530.385 360.776C530.385 361.651 530.236 362.424 529.937 363.096C529.638 363.757 529.206 364.275 528.641 364.648C528.076 365.011 527.404 365.192 526.625 365.192C525.441 365.192 524.518 364.797 523.857 364.008C523.196 363.219 522.865 362.147 522.865 360.792C522.865 359.917 523.014 359.149 523.313 358.488C523.612 357.816 524.044 357.299 524.609 356.936C525.174 356.563 525.852 356.376 526.641 356.376ZM526.641 357.56C525.18 357.56 524.449 358.637 524.449 360.792C524.449 362.936 525.174 364.008 526.625 364.008C528.076 364.008 528.801 362.931 528.801 360.776C528.801 358.632 528.081 357.56 526.641 357.56ZM536.481 356.376C536.78 356.376 537.057 356.408 537.313 356.472L537.041 357.912C536.785 357.848 536.54 357.816 536.305 357.816C535.782 357.816 535.361 358.008 535.041 358.392C534.721 358.776 534.47 359.373 534.289 360.184V365H532.817V356.568H534.081L534.225 358.28C534.449 357.651 534.753 357.176 535.137 356.856C535.521 356.536 535.969 356.376 536.481 356.376ZM544.872 360.536C544.872 360.781 544.862 361.032 544.84 361.288H539.464C539.528 362.216 539.763 362.899 540.168 363.336C540.574 363.773 541.096 363.992 541.736 363.992C542.142 363.992 542.515 363.933 542.856 363.816C543.198 363.699 543.555 363.512 543.928 363.256L544.568 364.136C543.672 364.84 542.691 365.192 541.624 365.192C540.451 365.192 539.534 364.808 538.872 364.04C538.222 363.272 537.896 362.216 537.896 360.872C537.896 359.997 538.035 359.224 538.312 358.552C538.6 357.869 539.006 357.336 539.528 356.952C540.062 356.568 540.686 356.376 541.4 356.376C542.52 356.376 543.379 356.744 543.976 357.48C544.574 358.216 544.872 359.235 544.872 360.536ZM543.416 360.104C543.416 359.272 543.251 358.637 542.92 358.2C542.59 357.763 542.094 357.544 541.432 357.544C540.227 357.544 539.571 358.429 539.464 360.2H543.416V360.104ZM553.41 352.184V366.568H553.058V352.184H553.41ZM572.237 365H570.765L570.381 360.024C570.221 358.072 570.131 356.573 570.109 355.528L567.725 363.752H566.301L563.789 355.512C563.789 356.845 563.72 358.387 563.581 360.136L563.213 365H561.773L562.685 353.976H564.733L567.053 361.992L569.261 353.976H571.325L572.237 365ZM580.434 363.032C580.434 363.373 580.493 363.629 580.61 363.8C580.728 363.96 580.904 364.083 581.138 364.168L580.802 365.192C580.365 365.139 580.013 365.016 579.746 364.824C579.48 364.632 579.282 364.333 579.154 363.928C578.589 364.771 577.752 365.192 576.642 365.192C575.81 365.192 575.154 364.957 574.674 364.488C574.194 364.019 573.954 363.405 573.954 362.648C573.954 361.752 574.274 361.064 574.914 360.584C575.565 360.104 576.482 359.864 577.666 359.864H578.962V359.24C578.962 358.643 578.818 358.216 578.53 357.96C578.242 357.704 577.8 357.576 577.202 357.576C576.584 357.576 575.826 357.725 574.93 358.024L574.562 356.952C575.608 356.568 576.578 356.376 577.474 356.376C578.466 356.376 579.208 356.621 579.698 357.112C580.189 357.592 580.434 358.28 580.434 359.176V363.032ZM576.978 364.088C577.821 364.088 578.482 363.651 578.962 362.776V360.84H577.858C576.301 360.84 575.522 361.416 575.522 362.568C575.522 363.069 575.645 363.448 575.89 363.704C576.136 363.96 576.498 364.088 576.978 364.088ZM584.981 365.192C584.437 365.192 584.005 365.032 583.685 364.712C583.376 364.381 583.221 363.923 583.221 363.336V353.176L584.693 353V363.304C584.693 363.539 584.731 363.709 584.805 363.816C584.891 363.923 585.029 363.976 585.221 363.976C585.424 363.976 585.605 363.944 585.765 363.88L586.149 364.904C585.797 365.096 585.408 365.192 584.981 365.192ZM589.461 356.568V365H587.989V356.568H589.461ZM588.709 352.52C589.018 352.52 589.269 352.616 589.461 352.808C589.653 353 589.749 353.24 589.749 353.528C589.749 353.816 589.653 354.056 589.461 354.248C589.269 354.429 589.018 354.52 588.709 354.52C588.41 354.52 588.165 354.429 587.973 354.248C587.781 354.056 587.685 353.816 587.685 353.528C587.685 353.24 587.781 353 587.973 352.808C588.165 352.616 588.41 352.52 588.709 352.52ZM596.36 356.376C597.32 356.376 598.083 356.765 598.648 357.544C599.214 358.312 599.496 359.389 599.496 360.776C599.496 361.651 599.363 362.424 599.096 363.096C598.83 363.757 598.446 364.275 597.944 364.648C597.443 365.011 596.856 365.192 596.184 365.192C595.299 365.192 594.552 364.819 593.944 364.072L593.8 365H592.504V353.176L593.976 353V357.624C594.584 356.792 595.379 356.376 596.36 356.376ZM595.832 364.024C596.483 364.024 596.99 363.763 597.352 363.24C597.726 362.707 597.912 361.885 597.912 360.776C597.912 359.635 597.742 358.813 597.4 358.312C597.059 357.8 596.574 357.544 595.944 357.544C595.198 357.544 594.542 357.981 593.976 358.856V362.888C594.2 363.24 594.472 363.517 594.792 363.72C595.123 363.923 595.47 364.024 595.832 364.024ZM608.276 365H607.012L606.9 363.688C606.58 364.211 606.212 364.595 605.796 364.84C605.38 365.075 604.874 365.192 604.276 365.192C603.54 365.192 602.964 364.968 602.548 364.52C602.132 364.072 601.924 363.437 601.924 362.616V356.568H603.396V362.456C603.396 363.032 603.498 363.443 603.7 363.688C603.903 363.923 604.234 364.04 604.692 364.04C605.514 364.04 606.218 363.555 606.804 362.584V356.568H608.276V365ZM611.701 362.968C612.021 362.968 612.288 363.075 612.501 363.288C612.714 363.501 612.821 363.763 612.821 364.072C612.821 364.403 612.725 364.781 612.533 365.208L611.461 367.656H610.405L611.045 365C610.906 364.893 610.794 364.76 610.709 364.6C610.634 364.44 610.597 364.264 610.597 364.072C610.597 363.763 610.704 363.501 610.917 363.288C611.13 363.075 611.392 362.968 611.701 362.968ZM623.331 353.784C623.992 353.784 624.547 353.869 624.995 354.04C625.454 354.211 625.918 354.488 626.387 354.872L625.555 355.848C624.883 355.304 624.174 355.032 623.427 355.032C622.51 355.032 621.768 355.384 621.203 356.088C620.648 356.792 620.371 357.923 620.371 359.48C620.371 360.995 620.648 362.115 621.203 362.84C621.758 363.555 622.494 363.912 623.411 363.912C623.88 363.912 624.291 363.832 624.643 363.672C624.995 363.512 625.368 363.288 625.763 363L626.515 363.96C626.174 364.312 625.736 364.605 625.203 364.84C624.67 365.075 624.056 365.192 623.363 365.192C622.467 365.192 621.667 364.973 620.963 364.536C620.27 364.088 619.726 363.437 619.331 362.584C618.947 361.72 618.755 360.685 618.755 359.48C618.755 358.275 618.958 357.245 619.363 356.392C619.768 355.528 620.318 354.877 621.011 354.44C621.704 354.003 622.478 353.784 623.331 353.784ZM634.3 365L633.468 362.232H629.292L628.46 365H626.924L630.46 353.976H632.38L635.9 365H634.3ZM629.66 361H633.1L631.388 355.24L629.66 361Z" fill="white"/>
<path d="M729.5 85.5C712.579 94.5586 745 122 736.5 134.5C728 147 661.5 127 677.5 153C732 219 609.5 192.5 628 221C646.5 249.5 724 244.5 716.5 289.5C709 334.5 661.5 360.5 661.5 360.5" stroke="white" stroke-width="2"/>
<path d="M598.378 75.784C599.039 75.784 599.594 75.8693 600.042 76.04C600.501 76.2107 600.965 76.488 601.434 76.872L600.602 77.848C599.93 77.304 599.221 77.032 598.474 77.032C597.557 77.032 596.815 77.384 596.25 78.088C595.695 78.792 595.418 79.9227 595.418 81.48C595.418 82.9947 595.695 84.1147 596.25 84.84C596.805 85.5547 597.541 85.912 598.458 85.912C598.927 85.912 599.338 85.832 599.69 85.672C600.042 85.512 600.415 85.288 600.81 85L601.562 85.96C601.221 86.312 600.783 86.6053 600.25 86.84C599.717 87.0747 599.103 87.192 598.41 87.192C597.514 87.192 596.714 86.9733 596.01 86.536C595.317 86.088 594.773 85.4373 594.378 84.584C593.994 83.72 593.802 82.6853 593.802 81.48C593.802 80.2747 594.005 79.2453 594.41 78.392C594.815 77.528 595.365 76.8773 596.058 76.44C596.751 76.0027 597.525 75.784 598.378 75.784ZM609.401 87H608.137L608.025 85.688C607.705 86.2107 607.337 86.5947 606.921 86.84C606.505 87.0747 605.999 87.192 605.401 87.192C604.665 87.192 604.089 86.968 603.673 86.52C603.257 86.072 603.049 85.4373 603.049 84.616V78.568H604.521V84.456C604.521 85.032 604.623 85.4427 604.825 85.688C605.028 85.9227 605.359 86.04 605.817 86.04C606.639 86.04 607.343 85.5547 607.929 84.584V78.568H609.401V87ZM616.106 78.376C616.405 78.376 616.682 78.408 616.938 78.472L616.666 79.912C616.41 79.848 616.165 79.816 615.93 79.816C615.407 79.816 614.986 80.008 614.666 80.392C614.346 80.776 614.095 81.3733 613.914 82.184V87H612.442V78.568H613.706L613.85 80.28C614.074 79.6507 614.378 79.176 614.762 78.856C615.146 78.536 615.594 78.376 616.106 78.376ZM622.278 78.376C622.576 78.376 622.854 78.408 623.11 78.472L622.838 79.912C622.582 79.848 622.336 79.816 622.102 79.816C621.579 79.816 621.158 80.008 620.838 80.392C620.518 80.776 620.267 81.3733 620.086 82.184V87H618.614V78.568H619.878L620.022 80.28C620.246 79.6507 620.55 79.176 620.934 78.856C621.318 78.536 621.766 78.376 622.278 78.376ZM630.669 82.536C630.669 82.7813 630.659 83.032 630.637 83.288H625.261C625.325 84.216 625.56 84.8987 625.965 85.336C626.371 85.7733 626.893 85.992 627.533 85.992C627.939 85.992 628.312 85.9333 628.653 85.816C628.995 85.6987 629.352 85.512 629.725 85.256L630.365 86.136C629.469 86.84 628.488 87.192 627.421 87.192C626.248 87.192 625.331 86.808 624.669 86.04C624.019 85.272 623.693 84.216 623.693 82.872C623.693 81.9973 623.832 81.224 624.109 80.552C624.397 79.8693 624.803 79.336 625.325 78.952C625.859 78.568 626.483 78.376 627.197 78.376C628.317 78.376 629.176 78.744 629.773 79.48C630.371 80.216 630.669 81.2347 630.669 82.536ZM629.213 82.104C629.213 81.272 629.048 80.6373 628.717 80.2C628.387 79.7627 627.891 79.544 627.229 79.544C626.024 79.544 625.368 80.4293 625.261 82.2H629.213V82.104ZM636.988 78.376C637.756 78.376 638.353 78.6053 638.78 79.064C639.217 79.5227 639.436 80.152 639.436 80.952V87H637.964V81.16C637.964 80.5627 637.852 80.1413 637.628 79.896C637.404 79.6507 637.073 79.528 636.636 79.528C636.188 79.528 635.793 79.656 635.452 79.912C635.111 80.168 634.791 80.536 634.492 81.016V87H633.02V78.568H634.284L634.412 79.816C634.711 79.368 635.079 79.016 635.516 78.76C635.964 78.504 636.455 78.376 636.988 78.376ZM646.651 86.616C646.096 87 645.467 87.192 644.763 87.192C644.048 87.192 643.488 86.9893 643.083 86.584C642.688 86.168 642.491 85.5707 642.491 84.792V79.704H641.019V78.568H642.491V76.664L643.963 76.488V78.568H645.963L645.803 79.704H643.963V84.728C643.963 85.1653 644.038 85.4853 644.187 85.688C644.347 85.88 644.608 85.976 644.971 85.976C645.302 85.976 645.675 85.864 646.091 85.64L646.651 86.616ZM654.011 75.976V85.672H658.539L658.363 87H652.491V75.976H654.011ZM663.141 78.376C664.325 78.376 665.242 78.7707 665.893 79.56C666.554 80.3493 666.885 81.4213 666.885 82.776C666.885 83.6507 666.736 84.424 666.437 85.096C666.138 85.7573 665.706 86.2747 665.141 86.648C664.576 87.0107 663.904 87.192 663.125 87.192C661.941 87.192 661.018 86.7973 660.357 86.008C659.696 85.2187 659.365 84.1467 659.365 82.792C659.365 81.9173 659.514 81.1493 659.813 80.488C660.112 79.816 660.544 79.2987 661.109 78.936C661.674 78.5627 662.352 78.376 663.141 78.376ZM663.141 79.56C661.68 79.56 660.949 80.6373 660.949 82.792C660.949 84.936 661.674 86.008 663.125 86.008C664.576 86.008 665.301 84.9307 665.301 82.776C665.301 80.632 664.581 79.56 663.141 79.56ZM672.389 78.376C672.89 78.376 673.349 78.4507 673.765 78.6C674.181 78.7387 674.581 78.968 674.965 79.288L674.261 80.216C673.962 80.0027 673.669 79.848 673.381 79.752C673.104 79.6453 672.794 79.592 672.453 79.592C671.77 79.592 671.237 79.864 670.853 80.408C670.48 80.952 670.293 81.7573 670.293 82.824C670.293 83.8907 670.48 84.68 670.853 85.192C671.226 85.6933 671.76 85.944 672.453 85.944C672.784 85.944 673.088 85.896 673.365 85.8C673.642 85.6933 673.952 85.528 674.293 85.304L674.965 86.264C674.197 86.8827 673.338 87.192 672.389 87.192C671.248 87.192 670.346 86.808 669.685 86.04C669.034 85.272 668.709 84.2107 668.709 82.856C668.709 81.96 668.858 81.176 669.157 80.504C669.456 79.832 669.877 79.3093 670.421 78.936C670.976 78.5627 671.632 78.376 672.389 78.376ZM682.481 85.032C682.481 85.3733 682.54 85.6293 682.657 85.8C682.775 85.96 682.951 86.0827 683.185 86.168L682.849 87.192C682.412 87.1387 682.06 87.016 681.793 86.824C681.527 86.632 681.329 86.3333 681.201 85.928C680.636 86.7707 679.799 87.192 678.689 87.192C677.857 87.192 677.201 86.9573 676.721 86.488C676.241 86.0187 676.001 85.4053 676.001 84.648C676.001 83.752 676.321 83.064 676.961 82.584C677.612 82.104 678.529 81.864 679.713 81.864H681.009V81.24C681.009 80.6427 680.865 80.216 680.577 79.96C680.289 79.704 679.847 79.576 679.249 79.576C678.631 79.576 677.873 79.7253 676.977 80.024L676.609 78.952C677.655 78.568 678.625 78.376 679.521 78.376C680.513 78.376 681.255 78.6213 681.745 79.112C682.236 79.592 682.481 80.28 682.481 81.176V85.032ZM679.025 86.088C679.868 86.088 680.529 85.6507 681.009 84.776V82.84H679.905C678.348 82.84 677.569 83.416 677.569 84.568C677.569 85.0693 677.692 85.448 677.937 85.704C678.183 85.96 678.545 86.088 679.025 86.088ZM689.76 86.616C689.206 87 688.576 87.192 687.872 87.192C687.158 87.192 686.598 86.9893 686.192 86.584C685.798 86.168 685.6 85.5707 685.6 84.792V79.704H684.128V78.568H685.6V76.664L687.072 76.488V78.568H689.072L688.912 79.704H687.072V84.728C687.072 85.1653 687.147 85.4853 687.296 85.688C687.456 85.88 687.718 85.976 688.08 85.976C688.411 85.976 688.784 85.864 689.2 85.64L689.76 86.616ZM692.758 78.568V87H691.286V78.568H692.758ZM692.006 74.52C692.315 74.52 692.566 74.616 692.758 74.808C692.95 75 693.046 75.24 693.046 75.528C693.046 75.816 692.95 76.056 692.758 76.248C692.566 76.4293 692.315 76.52 692.006 76.52C691.707 76.52 691.462 76.4293 691.27 76.248C691.078 76.056 690.982 75.816 690.982 75.528C690.982 75.24 691.078 75 691.27 74.808C691.462 74.616 691.707 74.52 692.006 74.52ZM698.969 78.376C700.153 78.376 701.071 78.7707 701.721 79.56C702.383 80.3493 702.713 81.4213 702.713 82.776C702.713 83.6507 702.564 84.424 702.265 85.096C701.967 85.7573 701.535 86.2747 700.969 86.648C700.404 87.0107 699.732 87.192 698.953 87.192C697.769 87.192 696.847 86.7973 696.185 86.008C695.524 85.2187 695.193 84.1467 695.193 82.792C695.193 81.9173 695.343 81.1493 695.641 80.488C695.94 79.816 696.372 79.2987 696.937 78.936C697.503 78.5627 698.18 78.376 698.969 78.376ZM698.969 79.56C697.508 79.56 696.777 80.6373 696.777 82.792C696.777 84.936 697.503 86.008 698.953 86.008C700.404 86.008 701.129 84.9307 701.129 82.776C701.129 80.632 700.409 79.56 698.969 79.56ZM709.113 78.376C709.881 78.376 710.478 78.6053 710.905 79.064C711.342 79.5227 711.561 80.152 711.561 80.952V87H710.089V81.16C710.089 80.5627 709.977 80.1413 709.753 79.896C709.529 79.6507 709.198 79.528 708.761 79.528C708.313 79.528 707.918 79.656 707.577 79.912C707.236 80.168 706.916 80.536 706.617 81.016V87H705.145V78.568H706.409L706.537 79.816C706.836 79.368 707.204 79.016 707.641 78.76C708.089 78.504 708.58 78.376 709.113 78.376Z" fill="white"/>
<path fill-rule="evenodd" clip-rule="evenodd" d="M660.5 366C664.09 366 667 363.09 667 359.5C667 355.91 664.09 353 660.5 353C656.91 353 654 355.91 654 359.5C654 363.09 656.91 366 660.5 366Z" fill="#4AF6CD"/>
<path fill-rule="evenodd" clip-rule="evenodd" d="M729.5 91C733.09 91 736 88.0899 736 84.5C736 80.9101 733.09 78 729.5 78C725.91 78 723 80.9101 723 84.5C723 88.0899 725.91 91 729.5 91Z" fill="#4AF6CD"/>
</svg>
