<svg width="1001" height="496" viewBox="0 0 1001 496" fill="none" xmlns="http://www.w3.org/2000/svg">
<g opacity="0.29827">
<path d="M1008.08 163.448L443.182 -356.858V-747.19L28.1096 -770C24.9043 -762.456 4.36709 -740.714 7.57176 -728.596C11.43 -714.102 30.8387 -718.735 36.4776 -709.409C43.0661 -698.42 31.7291 -653.749 28.3457 -640.86C21.8759 -616.445 7.09676 -596.665 2.82235 -572.25C-4.35982 -531.263 10.1824 -534.53 37.7242 -508.927C84.141 -465.742 46.9244 -420.952 58.6176 -370.223C68.1146 -328.878 109.605 -307.554 124.8 -266.211C136.553 -234.37 152.697 -226.233 177.746 -202.947C177.153 -217.084 164.51 -258.785 188.253 -255.102C211.817 -251.478 202.736 -216.669 207.247 -202.115C211.045 -189.997 237.933 -165.761 215.616 -154.593C208.196 -150.91 187.066 -165.582 178.577 -169.503C184.572 -150.791 180.774 -131.367 190.271 -113.487C201.608 -92.162 213.835 -100.359 228.853 -88.7754C244.344 -76.8355 242.683 -63.1137 235.797 -45.0554C228.615 -26.2247 221.196 -29.1352 232.592 -6.44342C240.843 9.95119 254.85 30.7421 266.9 43.2164C273.904 50.4634 281.502 52.1267 288.506 61.3932C294.323 69.1155 292.067 79.2142 299.012 86.1638C310.883 98.1037 331.006 98.282 340.384 113.904C350.831 131.309 338.96 144.437 369.706 142.833C371.309 177.643 377.897 209.185 377.541 243.994C394.695 250.825 422.414 242.687 440.399 239.063C458.266 263.18 481.355 246.429 501.774 259.558C510.678 265.26 508.837 279.517 514.239 284.506C525.339 294.723 533.529 288.308 547.301 291.872C557.51 294.486 565.404 301.97 575.138 304.703C584.338 307.257 599.475 301.258 606.301 309.396C614.492 319.138 600.78 336.958 613.127 344.799C623.395 351.333 638.115 335.77 648.088 338.027C659.721 340.7 693.079 371.174 701.271 381.212C710.59 392.677 719.969 414.062 725.25 428.793C733.501 451.841 732.373 463.127 749.408 479.998C760.27 490.75 749.942 491.522 767.63 494.67C779.204 496.749 794.518 488.374 806.212 487.067C830.549 484.394 855.122 489.027 879.102 484.453C901.421 480.176 922.729 473.166 945.64 469.899C965.465 467.048 1000.37 469.246 1017.94 459.801C1036.99 449.643 1038.71 426.654 1011.17 430.932C1008.97 416.26 1018.77 396.003 1007.85 385.847C1023.04 365.056 1028.56 350.384 1030.93 324.959C1032 313.792 1032.48 301.436 1038 292.05C1043.4 282.783 1058.59 277.259 1061.56 269.299C1066.13 256.943 1058.83 251.419 1053.25 244.528C1049.69 240.073 1039.54 242.212 1036.63 238.291C1031.23 231.103 1036.57 223.678 1033.6 216.431C1024.94 195.462 1014.61 187.205 1008.08 163.444C1008.26 167.424 1008.44 171.463 1008.2 175.384" stroke="white" stroke-width="2" stroke-linecap="round" stroke-linejoin="round"/>
</g>
<path d="M729 470C728 461.5 722.5 473.5 731.5 470" stroke="black"/>
<path fill-rule="evenodd" clip-rule="evenodd" d="M661 363C662.657 363 664 361.657 664 360C664 358.343 662.657 357 661 357C659.343 357 658 358.343 658 360C658 361.657 659.343 363 661 363Z" fill="#4AF6CD"/>
<path fill-rule="evenodd" clip-rule="evenodd" d="M574 322C575.657 322 577 320.657 577 319C577 317.343 575.657 316 574 316C572.343 316 571 317.343 571 319C571 320.657 572.343 322 574 322Z" fill="#4AF6CD"/>
<path fill-rule="evenodd" clip-rule="evenodd" d="M725 471C726.657 471 728 469.657 728 468C728 466.343 726.657 465 725 465C723.343 465 722 466.343 722 468C722 469.657 723.343 471 725 471Z" fill="#4AF6CD"/>
<path fill-rule="evenodd" clip-rule="evenodd" d="M365 228C366.657 228 368 226.657 368 225C368 223.343 366.657 222 365 222C363.343 222 362 223.343 362 225C362 226.657 363.343 228 365 228Z" fill="#4AF6CD"/>
<path d="M173.359 230H171.327L166.847 220.64C166.911 221.376 166.959 222.059 166.991 222.688C167.034 223.307 167.055 224.059 167.055 224.944V230H165.631V218.976H167.615L172.143 228.352C172.111 228.075 172.069 227.589 172.015 226.896C171.962 226.203 171.935 225.568 171.935 224.992V218.976H173.359V230ZM179.641 221.376C180.825 221.376 181.742 221.771 182.393 222.56C183.054 223.349 183.385 224.421 183.385 225.776C183.385 226.651 183.236 227.424 182.937 228.096C182.638 228.757 182.206 229.275 181.641 229.648C181.076 230.011 180.404 230.192 179.625 230.192C178.441 230.192 177.518 229.797 176.857 229.008C176.196 228.219 175.865 227.147 175.865 225.792C175.865 224.917 176.014 224.149 176.313 223.488C176.612 222.816 177.044 222.299 177.609 221.936C178.174 221.563 178.852 221.376 179.641 221.376ZM179.641 222.56C178.18 222.56 177.449 223.637 177.449 225.792C177.449 227.936 178.174 229.008 179.625 229.008C181.076 229.008 181.801 227.931 181.801 225.776C181.801 223.632 181.081 222.56 179.641 222.56ZM189.481 221.376C189.78 221.376 190.057 221.408 190.313 221.472L190.041 222.912C189.785 222.848 189.54 222.816 189.305 222.816C188.782 222.816 188.361 223.008 188.041 223.392C187.721 223.776 187.47 224.373 187.289 225.184V230H185.817V221.568H187.081L187.225 223.28C187.449 222.651 187.753 222.176 188.137 221.856C188.521 221.536 188.969 221.376 189.481 221.376ZM196.245 229.616C195.69 230 195.061 230.192 194.357 230.192C193.642 230.192 193.082 229.989 192.677 229.584C192.282 229.168 192.085 228.571 192.085 227.792V222.704H190.613V221.568H192.085V219.664L193.557 219.488V221.568H195.557L195.397 222.704H193.557V227.728C193.557 228.165 193.631 228.485 193.781 228.688C193.941 228.88 194.202 228.976 194.565 228.976C194.895 228.976 195.269 228.864 195.685 228.64L196.245 229.616ZM201.738 221.376C202.506 221.376 203.103 221.605 203.53 222.064C203.967 222.523 204.186 223.152 204.186 223.952V230H202.714V224.16C202.714 223.563 202.597 223.141 202.362 222.896C202.138 222.651 201.807 222.528 201.37 222.528C200.933 222.528 200.543 222.656 200.202 222.912C199.861 223.168 199.541 223.531 199.242 224V230H197.77V218.192L199.242 218.032V222.736C199.903 221.829 200.735 221.376 201.738 221.376ZM214.179 218.784C214.915 218.784 215.545 218.891 216.067 219.104C216.59 219.307 217.097 219.627 217.587 220.064L216.755 220.992C216.339 220.661 215.929 220.421 215.523 220.272C215.129 220.112 214.702 220.032 214.243 220.032C213.667 220.032 213.193 220.165 212.819 220.432C212.446 220.699 212.259 221.088 212.259 221.6C212.259 221.92 212.323 222.192 212.451 222.416C212.579 222.629 212.814 222.827 213.155 223.008C213.507 223.189 214.014 223.381 214.675 223.584C215.369 223.797 215.945 224.027 216.403 224.272C216.862 224.517 217.23 224.859 217.507 225.296C217.795 225.723 217.939 226.267 217.939 226.928C217.939 227.568 217.779 228.133 217.459 228.624C217.15 229.115 216.697 229.499 216.099 229.776C215.513 230.053 214.814 230.192 214.003 230.192C212.478 230.192 211.23 229.717 210.259 228.768L211.091 227.84C211.539 228.203 211.993 228.48 212.451 228.672C212.91 228.853 213.422 228.944 213.987 228.944C214.67 228.944 215.235 228.779 215.683 228.448C216.131 228.107 216.355 227.616 216.355 226.976C216.355 226.613 216.286 226.315 216.147 226.08C216.009 225.835 215.769 225.616 215.427 225.424C215.097 225.232 214.611 225.04 213.971 224.848C212.841 224.507 212.014 224.096 211.491 223.616C210.969 223.136 210.707 222.485 210.707 221.664C210.707 221.109 210.851 220.613 211.139 220.176C211.438 219.739 211.849 219.397 212.371 219.152C212.905 218.907 213.507 218.784 214.179 218.784ZM224.066 221.376C224.834 221.376 225.431 221.605 225.858 222.064C226.295 222.523 226.514 223.152 226.514 223.952V230H225.042V224.16C225.042 223.563 224.925 223.141 224.69 222.896C224.466 222.651 224.135 222.528 223.698 222.528C223.261 222.528 222.871 222.656 222.53 222.912C222.189 223.168 221.869 223.531 221.57 224V230H220.098V218.192L221.57 218.032V222.736C222.231 221.829 223.063 221.376 224.066 221.376ZM232.641 221.376C233.825 221.376 234.742 221.771 235.393 222.56C236.054 223.349 236.385 224.421 236.385 225.776C236.385 226.651 236.236 227.424 235.937 228.096C235.638 228.757 235.206 229.275 234.641 229.648C234.076 230.011 233.404 230.192 232.625 230.192C231.441 230.192 230.518 229.797 229.857 229.008C229.196 228.219 228.865 227.147 228.865 225.792C228.865 224.917 229.014 224.149 229.313 223.488C229.612 222.816 230.044 222.299 230.609 221.936C231.174 221.563 231.852 221.376 232.641 221.376ZM232.641 222.56C231.18 222.56 230.449 223.637 230.449 225.792C230.449 227.936 231.174 229.008 232.625 229.008C234.076 229.008 234.801 227.931 234.801 225.776C234.801 223.632 234.081 222.56 232.641 222.56ZM242.481 221.376C242.78 221.376 243.057 221.408 243.313 221.472L243.041 222.912C242.785 222.848 242.54 222.816 242.305 222.816C241.782 222.816 241.361 223.008 241.041 223.392C240.721 223.776 240.47 224.373 240.289 225.184V230H238.817V221.568H240.081L240.225 223.28C240.449 222.651 240.753 222.176 241.137 221.856C241.521 221.536 241.969 221.376 242.481 221.376ZM250.872 225.536C250.872 225.781 250.862 226.032 250.84 226.288H245.464C245.528 227.216 245.763 227.899 246.168 228.336C246.574 228.773 247.096 228.992 247.736 228.992C248.142 228.992 248.515 228.933 248.856 228.816C249.198 228.699 249.555 228.512 249.928 228.256L250.568 229.136C249.672 229.84 248.691 230.192 247.624 230.192C246.451 230.192 245.534 229.808 244.872 229.04C244.222 228.272 243.896 227.216 243.896 225.872C243.896 224.997 244.035 224.224 244.312 223.552C244.6 222.869 245.006 222.336 245.528 221.952C246.062 221.568 246.686 221.376 247.4 221.376C248.52 221.376 249.379 221.744 249.976 222.48C250.574 223.216 250.872 224.235 250.872 225.536ZM249.416 225.104C249.416 224.272 249.251 223.637 248.92 223.2C248.59 222.763 248.094 222.544 247.432 222.544C246.227 222.544 245.571 223.429 245.464 225.2H249.416V225.104ZM259.41 217.184V231.568H259.058V217.184H259.41ZM278.237 230H276.765L276.381 225.024C276.221 223.072 276.131 221.573 276.109 220.528L273.725 228.752H272.301L269.789 220.512C269.789 221.845 269.72 223.387 269.581 225.136L269.213 230H267.773L268.685 218.976H270.733L273.053 226.992L275.261 218.976H277.325L278.237 230ZM286.434 228.032C286.434 228.373 286.493 228.629 286.61 228.8C286.728 228.96 286.904 229.083 287.138 229.168L286.802 230.192C286.365 230.139 286.013 230.016 285.746 229.824C285.48 229.632 285.282 229.333 285.154 228.928C284.589 229.771 283.752 230.192 282.642 230.192C281.81 230.192 281.154 229.957 280.674 229.488C280.194 229.019 279.954 228.405 279.954 227.648C279.954 226.752 280.274 226.064 280.914 225.584C281.565 225.104 282.482 224.864 283.666 224.864H284.962V224.24C284.962 223.643 284.818 223.216 284.53 222.96C284.242 222.704 283.8 222.576 283.202 222.576C282.584 222.576 281.826 222.725 280.93 223.024L280.562 221.952C281.608 221.568 282.578 221.376 283.474 221.376C284.466 221.376 285.208 221.621 285.698 222.112C286.189 222.592 286.434 223.28 286.434 224.176V228.032ZM282.978 229.088C283.821 229.088 284.482 228.651 284.962 227.776V225.84H283.858C282.301 225.84 281.522 226.416 281.522 227.568C281.522 228.069 281.645 228.448 281.89 228.704C282.136 228.96 282.498 229.088 282.978 229.088ZM290.981 230.192C290.437 230.192 290.005 230.032 289.685 229.712C289.376 229.381 289.221 228.923 289.221 228.336V218.176L290.693 218V228.304C290.693 228.539 290.731 228.709 290.805 228.816C290.891 228.923 291.029 228.976 291.221 228.976C291.424 228.976 291.605 228.944 291.765 228.88L292.149 229.904C291.797 230.096 291.408 230.192 290.981 230.192ZM295.461 221.568V230H293.989V221.568H295.461ZM294.709 217.52C295.018 217.52 295.269 217.616 295.461 217.808C295.653 218 295.749 218.24 295.749 218.528C295.749 218.816 295.653 219.056 295.461 219.248C295.269 219.429 295.018 219.52 294.709 219.52C294.41 219.52 294.165 219.429 293.973 219.248C293.781 219.056 293.685 218.816 293.685 218.528C293.685 218.24 293.781 218 293.973 217.808C294.165 217.616 294.41 217.52 294.709 217.52ZM302.36 221.376C303.32 221.376 304.083 221.765 304.648 222.544C305.214 223.312 305.496 224.389 305.496 225.776C305.496 226.651 305.363 227.424 305.096 228.096C304.83 228.757 304.446 229.275 303.944 229.648C303.443 230.011 302.856 230.192 302.184 230.192C301.299 230.192 300.552 229.819 299.944 229.072L299.8 230H298.504V218.176L299.976 218V222.624C300.584 221.792 301.379 221.376 302.36 221.376ZM301.832 229.024C302.483 229.024 302.99 228.763 303.352 228.24C303.726 227.707 303.912 226.885 303.912 225.776C303.912 224.635 303.742 223.813 303.4 223.312C303.059 222.8 302.574 222.544 301.944 222.544C301.198 222.544 300.542 222.981 299.976 223.856V227.888C300.2 228.24 300.472 228.517 300.792 228.72C301.123 228.923 301.47 229.024 301.832 229.024ZM314.276 230H313.012L312.9 228.688C312.58 229.211 312.212 229.595 311.796 229.84C311.38 230.075 310.874 230.192 310.276 230.192C309.54 230.192 308.964 229.968 308.548 229.52C308.132 229.072 307.924 228.437 307.924 227.616V221.568H309.396V227.456C309.396 228.032 309.498 228.443 309.7 228.688C309.903 228.923 310.234 229.04 310.692 229.04C311.514 229.04 312.218 228.555 312.804 227.584V221.568H314.276V230ZM317.701 227.968C318.021 227.968 318.288 228.075 318.501 228.288C318.714 228.501 318.821 228.763 318.821 229.072C318.821 229.403 318.725 229.781 318.533 230.208L317.461 232.656H316.405L317.045 230C316.906 229.893 316.794 229.76 316.709 229.6C316.634 229.44 316.597 229.264 316.597 229.072C316.597 228.763 316.704 228.501 316.917 228.288C317.13 228.075 317.392 227.968 317.701 227.968ZM329.331 218.784C329.992 218.784 330.547 218.869 330.995 219.04C331.454 219.211 331.918 219.488 332.387 219.872L331.555 220.848C330.883 220.304 330.174 220.032 329.427 220.032C328.51 220.032 327.768 220.384 327.203 221.088C326.648 221.792 326.371 222.923 326.371 224.48C326.371 225.995 326.648 227.115 327.203 227.84C327.758 228.555 328.494 228.912 329.411 228.912C329.88 228.912 330.291 228.832 330.643 228.672C330.995 228.512 331.368 228.288 331.763 228L332.515 228.96C332.174 229.312 331.736 229.605 331.203 229.84C330.67 230.075 330.056 230.192 329.363 230.192C328.467 230.192 327.667 229.973 326.963 229.536C326.27 229.088 325.726 228.437 325.331 227.584C324.947 226.72 324.755 225.685 324.755 224.48C324.755 223.275 324.958 222.245 325.363 221.392C325.768 220.528 326.318 219.877 327.011 219.44C327.704 219.003 328.478 218.784 329.331 218.784ZM340.3 230L339.468 227.232H335.292L334.46 230H332.924L336.46 218.976H338.38L341.9 230H340.3ZM335.66 226H339.1L337.388 220.24L335.66 226Z" fill="white"/>
<path d="M725.87 85.8965C722.97 104.752 686.325 83.6559 677.38 95.7951C668.435 107.934 690.5 134.5 614.5 154C547 164 535.5 181 525.5 130C515.5 78.9999 441.5 148 445 205.5C448.5 263 365 224.5 365 224.5" stroke="white" stroke-width="2"/>
<path d="M598.378 75.784C599.039 75.784 599.594 75.8693 600.042 76.04C600.501 76.2107 600.965 76.488 601.434 76.872L600.602 77.848C599.93 77.304 599.221 77.032 598.474 77.032C597.557 77.032 596.815 77.384 596.25 78.088C595.695 78.792 595.418 79.9227 595.418 81.48C595.418 82.9947 595.695 84.1147 596.25 84.84C596.805 85.5547 597.541 85.912 598.458 85.912C598.927 85.912 599.338 85.832 599.69 85.672C600.042 85.512 600.415 85.288 600.81 85L601.562 85.96C601.221 86.312 600.783 86.6053 600.25 86.84C599.717 87.0747 599.103 87.192 598.41 87.192C597.514 87.192 596.714 86.9733 596.01 86.536C595.317 86.088 594.773 85.4373 594.378 84.584C593.994 83.72 593.802 82.6853 593.802 81.48C593.802 80.2747 594.005 79.2453 594.41 78.392C594.815 77.528 595.365 76.8773 596.058 76.44C596.751 76.0027 597.525 75.784 598.378 75.784ZM609.401 87H608.137L608.025 85.688C607.705 86.2107 607.337 86.5947 606.921 86.84C606.505 87.0747 605.999 87.192 605.401 87.192C604.665 87.192 604.089 86.968 603.673 86.52C603.257 86.072 603.049 85.4373 603.049 84.616V78.568H604.521V84.456C604.521 85.032 604.623 85.4427 604.825 85.688C605.028 85.9227 605.359 86.04 605.817 86.04C606.639 86.04 607.343 85.5547 607.929 84.584V78.568H609.401V87ZM616.106 78.376C616.405 78.376 616.682 78.408 616.938 78.472L616.666 79.912C616.41 79.848 616.165 79.816 615.93 79.816C615.407 79.816 614.986 80.008 614.666 80.392C614.346 80.776 614.095 81.3733 613.914 82.184V87H612.442V78.568H613.706L613.85 80.28C614.074 79.6507 614.378 79.176 614.762 78.856C615.146 78.536 615.594 78.376 616.106 78.376ZM622.278 78.376C622.576 78.376 622.854 78.408 623.11 78.472L622.838 79.912C622.582 79.848 622.336 79.816 622.102 79.816C621.579 79.816 621.158 80.008 620.838 80.392C620.518 80.776 620.267 81.3733 620.086 82.184V87H618.614V78.568H619.878L620.022 80.28C620.246 79.6507 620.55 79.176 620.934 78.856C621.318 78.536 621.766 78.376 622.278 78.376ZM630.669 82.536C630.669 82.7813 630.659 83.032 630.637 83.288H625.261C625.325 84.216 625.56 84.8987 625.965 85.336C626.371 85.7733 626.893 85.992 627.533 85.992C627.939 85.992 628.312 85.9333 628.653 85.816C628.995 85.6987 629.352 85.512 629.725 85.256L630.365 86.136C629.469 86.84 628.488 87.192 627.421 87.192C626.248 87.192 625.331 86.808 624.669 86.04C624.019 85.272 623.693 84.216 623.693 82.872C623.693 81.9973 623.832 81.224 624.109 80.552C624.397 79.8693 624.803 79.336 625.325 78.952C625.859 78.568 626.483 78.376 627.197 78.376C628.317 78.376 629.176 78.744 629.773 79.48C630.371 80.216 630.669 81.2347 630.669 82.536ZM629.213 82.104C629.213 81.272 629.048 80.6373 628.717 80.2C628.387 79.7627 627.891 79.544 627.229 79.544C626.024 79.544 625.368 80.4293 625.261 82.2H629.213V82.104ZM636.988 78.376C637.756 78.376 638.353 78.6053 638.78 79.064C639.217 79.5227 639.436 80.152 639.436 80.952V87H637.964V81.16C637.964 80.5627 637.852 80.1413 637.628 79.896C637.404 79.6507 637.073 79.528 636.636 79.528C636.188 79.528 635.793 79.656 635.452 79.912C635.111 80.168 634.791 80.536 634.492 81.016V87H633.02V78.568H634.284L634.412 79.816C634.711 79.368 635.079 79.016 635.516 78.76C635.964 78.504 636.455 78.376 636.988 78.376ZM646.651 86.616C646.096 87 645.467 87.192 644.763 87.192C644.048 87.192 643.488 86.9893 643.083 86.584C642.688 86.168 642.491 85.5707 642.491 84.792V79.704H641.019V78.568H642.491V76.664L643.963 76.488V78.568H645.963L645.803 79.704H643.963V84.728C643.963 85.1653 644.038 85.4853 644.187 85.688C644.347 85.88 644.608 85.976 644.971 85.976C645.302 85.976 645.675 85.864 646.091 85.64L646.651 86.616ZM654.011 75.976V85.672H658.539L658.363 87H652.491V75.976H654.011ZM663.141 78.376C664.325 78.376 665.242 78.7707 665.893 79.56C666.554 80.3493 666.885 81.4213 666.885 82.776C666.885 83.6507 666.736 84.424 666.437 85.096C666.138 85.7573 665.706 86.2747 665.141 86.648C664.576 87.0107 663.904 87.192 663.125 87.192C661.941 87.192 661.018 86.7973 660.357 86.008C659.696 85.2187 659.365 84.1467 659.365 82.792C659.365 81.9173 659.514 81.1493 659.813 80.488C660.112 79.816 660.544 79.2987 661.109 78.936C661.674 78.5627 662.352 78.376 663.141 78.376ZM663.141 79.56C661.68 79.56 660.949 80.6373 660.949 82.792C660.949 84.936 661.674 86.008 663.125 86.008C664.576 86.008 665.301 84.9307 665.301 82.776C665.301 80.632 664.581 79.56 663.141 79.56ZM672.389 78.376C672.89 78.376 673.349 78.4507 673.765 78.6C674.181 78.7387 674.581 78.968 674.965 79.288L674.261 80.216C673.962 80.0027 673.669 79.848 673.381 79.752C673.104 79.6453 672.794 79.592 672.453 79.592C671.77 79.592 671.237 79.864 670.853 80.408C670.48 80.952 670.293 81.7573 670.293 82.824C670.293 83.8907 670.48 84.68 670.853 85.192C671.226 85.6933 671.76 85.944 672.453 85.944C672.784 85.944 673.088 85.896 673.365 85.8C673.642 85.6933 673.952 85.528 674.293 85.304L674.965 86.264C674.197 86.8827 673.338 87.192 672.389 87.192C671.248 87.192 670.346 86.808 669.685 86.04C669.034 85.272 668.709 84.2107 668.709 82.856C668.709 81.96 668.858 81.176 669.157 80.504C669.456 79.832 669.877 79.3093 670.421 78.936C670.976 78.5627 671.632 78.376 672.389 78.376ZM682.481 85.032C682.481 85.3733 682.54 85.6293 682.657 85.8C682.775 85.96 682.951 86.0827 683.185 86.168L682.849 87.192C682.412 87.1387 682.06 87.016 681.793 86.824C681.527 86.632 681.329 86.3333 681.201 85.928C680.636 86.7707 679.799 87.192 678.689 87.192C677.857 87.192 677.201 86.9573 676.721 86.488C676.241 86.0187 676.001 85.4053 676.001 84.648C676.001 83.752 676.321 83.064 676.961 82.584C677.612 82.104 678.529 81.864 679.713 81.864H681.009V81.24C681.009 80.6427 680.865 80.216 680.577 79.96C680.289 79.704 679.847 79.576 679.249 79.576C678.631 79.576 677.873 79.7253 676.977 80.024L676.609 78.952C677.655 78.568 678.625 78.376 679.521 78.376C680.513 78.376 681.255 78.6213 681.745 79.112C682.236 79.592 682.481 80.28 682.481 81.176V85.032ZM679.025 86.088C679.868 86.088 680.529 85.6507 681.009 84.776V82.84H679.905C678.348 82.84 677.569 83.416 677.569 84.568C677.569 85.0693 677.692 85.448 677.937 85.704C678.183 85.96 678.545 86.088 679.025 86.088ZM689.76 86.616C689.206 87 688.576 87.192 687.872 87.192C687.158 87.192 686.598 86.9893 686.192 86.584C685.798 86.168 685.6 85.5707 685.6 84.792V79.704H684.128V78.568H685.6V76.664L687.072 76.488V78.568H689.072L688.912 79.704H687.072V84.728C687.072 85.1653 687.147 85.4853 687.296 85.688C687.456 85.88 687.718 85.976 688.08 85.976C688.411 85.976 688.784 85.864 689.2 85.64L689.76 86.616ZM692.758 78.568V87H691.286V78.568H692.758ZM692.006 74.52C692.315 74.52 692.566 74.616 692.758 74.808C692.95 75 693.046 75.24 693.046 75.528C693.046 75.816 692.95 76.056 692.758 76.248C692.566 76.4293 692.315 76.52 692.006 76.52C691.707 76.52 691.462 76.4293 691.27 76.248C691.078 76.056 690.982 75.816 690.982 75.528C690.982 75.24 691.078 75 691.27 74.808C691.462 74.616 691.707 74.52 692.006 74.52ZM698.969 78.376C700.153 78.376 701.071 78.7707 701.721 79.56C702.383 80.3493 702.713 81.4213 702.713 82.776C702.713 83.6507 702.564 84.424 702.265 85.096C701.967 85.7573 701.535 86.2747 700.969 86.648C700.404 87.0107 699.732 87.192 698.953 87.192C697.769 87.192 696.847 86.7973 696.185 86.008C695.524 85.2187 695.193 84.1467 695.193 82.792C695.193 81.9173 695.343 81.1493 695.641 80.488C695.94 79.816 696.372 79.2987 696.937 78.936C697.503 78.5627 698.18 78.376 698.969 78.376ZM698.969 79.56C697.508 79.56 696.777 80.6373 696.777 82.792C696.777 84.936 697.503 86.008 698.953 86.008C700.404 86.008 701.129 84.9307 701.129 82.776C701.129 80.632 700.409 79.56 698.969 79.56ZM709.113 78.376C709.881 78.376 710.478 78.6053 710.905 79.064C711.342 79.5227 711.561 80.152 711.561 80.952V87H710.089V81.16C710.089 80.5627 709.977 80.1413 709.753 79.896C709.529 79.6507 709.198 79.528 708.761 79.528C708.313 79.528 707.918 79.656 707.577 79.912C707.236 80.168 706.916 80.536 706.617 81.016V87H705.145V78.568H706.409L706.537 79.816C706.836 79.368 707.204 79.016 707.641 78.76C708.089 78.504 708.58 78.376 709.113 78.376Z" fill="white"/>
<path fill-rule="evenodd" clip-rule="evenodd" d="M364.5 231C368.09 231 371 228.09 371 224.5C371 220.91 368.09 218 364.5 218C360.91 218 358 220.91 358 224.5C358 228.09 360.91 231 364.5 231Z" fill="#4AF6CD"/>
<path fill-rule="evenodd" clip-rule="evenodd" d="M729.5 91C733.09 91 736 88.0899 736 84.5C736 80.9101 733.09 78 729.5 78C725.91 78 723 80.9101 723 84.5C723 88.0899 725.91 91 729.5 91Z" fill="#4AF6CD"/>
</svg>
